<?xml version="1.0" encoding="UTF-8"?>
<svg xmlns="http://www.w3.org/2000/svg" xmlns:xlink="http://www.w3.org/1999/xlink" width="24px" height="24px" viewBox="0 0 24 24" version="1.1">
<g id="surface1">
<path style=" stroke:none;fill-rule:nonzero;fill:rgb(100%,100%,100%);fill-opacity:1;" d="M 23.558594 13.058594 C 24.144531 12.472656 24.144531 11.523438 23.558594 10.9375 L 17.558594 4.9375 C 16.972656 4.351562 16.023438 4.351562 15.4375 4.9375 C 14.851562 5.523438 14.851562 6.472656 15.4375 7.058594 L 18.875 10.5 L 9 10.5 C 8.171875 10.5 7.5 11.171875 7.5 12 C 7.5 12.828125 8.171875 13.5 9 13.5 L 18.875 13.5 L 15.4375 16.941406 C 14.851562 17.527344 14.851562 18.476562 15.4375 19.0625 C 16.023438 19.648438 16.972656 19.648438 17.558594 19.0625 L 23.558594 13.0625 Z M 7.5 4.5 C 8.328125 4.5 9 3.828125 9 3 C 9 2.171875 8.328125 1.5 7.5 1.5 L 4.5 1.5 C 2.015625 1.5 0 3.515625 0 6 L 0 18 C 0 20.484375 2.015625 22.5 4.5 22.5 L 7.5 22.5 C 8.328125 22.5 9 21.828125 9 21 C 9 20.171875 8.328125 19.5 7.5 19.5 L 4.5 19.5 C 3.671875 19.5 3 18.828125 3 18 L 3 6 C 3 5.171875 3.671875 4.5 4.5 4.5 Z M 7.5 4.5 "/>
</g>
</svg>
